<svg fill="none" height="121" viewBox="0 0 193 121" width="193" xmlns="http://www.w3.org/2000/svg" xmlns:xlink="http://www.w3.org/1999/xlink"><clipPath id="a"><rect height="120.254" rx="12.7536" width="193"/></clipPath><clipPath id="b"><path d="m26 47.5077h141.91v25.2976h-141.91z"/></clipPath><g clip-path="url(#a)"><path d="m193 0h-193v120.254h193z" fill="#01528a"/><g clip-path="url(#b)"><path clip-rule="evenodd" d="m56.3699 70.3718h5.3226v-7.8692h8.413v-4.1205h-8.413v-4.1779h9.7282v-4.2631h-15.0508zm27.2964-20.8598c-6.3807 0-10.0721 4.6643-10.0721 10.6438 0 6.3527 4.0632 10.6437 10.0721 10.6437 6.0088 0 10.072-4.5776 10.072-10.6437 0-6.0662-3.8633-10.6438-10.072-10.6438zm0 16.7099c-3.0611 0-4.7495-2.4893-4.7495-6.0661s1.7164-6.0662 4.7215-6.0662 4.7789 2.5173 4.7789 6.0662c0 3.5488-1.7164 6.0661-4.7495 6.0661zm28.4127-6.1234c-1.115-1.0302-3.262-1.8884-6.552-2.604-2.632-.5717-3.634-1.1727-3.634-2.1176 0-1.1154 1.03-1.7457 2.574-1.7457 1.918 0 3.291.7729 3.291 2.2894v.172h5.293v-.2572c0-3.7194-3.405-6.3234-8.184-6.3234-4.091 0-8.2983 1.9457-8.2983 6.2088 0 1.5445.5158 2.7465 1.5445 3.7487 1.0581 1.0022 3.0038 1.8883 5.8088 2.5173 2.404.5437 4.493 1.1154 4.493 2.604 0 1.3166-1.317 2.0882-3.291 2.0882-2.517 0-3.719-1.0022-3.834-3.1757h-5.3223c0 4.7216 3.5475 7.2962 8.8703 7.2962 5.322 0 8.899-2.3174 8.899-6.8391 0-1.5738-.544-2.8612-1.659-3.8633zm9.986 1.803h10.015v-4.1205h-10.015v-3.5768h10.958v-4.2631h-16.281v20.4307h16.568v-4.5776h-11.245v-3.8913zm13.477-7.3828h6.094v15.8517h5.322v-15.8517h6.095v-4.5776h-17.511zm-88.4614-7.011h-16.865c-2.3189 0-4.2156 1.8967-4.2156 4.2156v16.865c0 2.3188 1.8967 4.2156 4.2156 4.2156h7.0837v-3.3015h-.8079c-.0433 0-.0867 0-.1314 0-.0028 0-.0042 0-.007 0-2.0477 0-3.7739-1.3684-4.319-3.2399 0 0 0 0 0-.0014-.0028-.007-.0042-.0154-.007-.0238-.0126-.0419-.0237-.0839-.0349-.1258-.8498-3.0722-2.4279-8.8225-3.0233-10.9918-.0629-.232.2222-.3955.39-.225l4.8864 4.9326c.1943.1957.0545.5297-.2208.5284l-1.012-.0042 1.3782 5.0332h.0014c.253.8289 1.0217 1.4313 1.9331 1.4313h.9728v-10.0148c0-.0475-.0392-.0866-.0867-.0866h-.8903c-.1887 0-.3201-.1873-.2572-.3649l2.3621-6.5791c.0741-.2054.3649-.2054.4389 0l2.3622 6.5778c.0643.1775-.0671.3648-.2572.3648h-.8903c-.0476 0-.0867.0391-.0867.0866v10.0246h.9728c.9114 0 1.6801-.6025 1.9331-1.4299h.0014l1.3782-5.0333-1.012.0042c-.2754 0-.4151-.3312-.2208-.5283l4.8864-4.9326c.1692-.1705.4543-.0056.39.225-.5954 2.1693-2.1735 7.9196-3.0233 10.9918-.0112.0419-.0224.0839-.0349.1258-.0028.007-.0042.0154-.007.0238v.0014c-.5437 1.8715-2.2713 3.2399-4.319 3.2399-.0028 0-.0042 0-.007 0-.0447 0-.0881 0-.1314 0h-.8079v3.2931h7.0837c2.3189 0 4.2156-1.8968 4.2156-4.2156v-16.8664c0-2.3189-1.8967-4.2156-4.2156-4.2156zm117.9864 6.5861c0-1.2593-.838-1.6647-2.26-1.6647h-2.057v5.5099h1.178v-2.3147h.555l1.272 2.3147h1.395l-1.408-2.4097c.731-.0545 1.327-.4193 1.327-1.4355zm-2.098.5954h-1.042v-1.3264h.826c.446 0 1.055.0405 1.055.6094 0 .608-.312.717-.84.717zm-.19-4.6153c-2.72 0-5.143 1.8814-5.143 5.1171 0 3.2358 2.423 5.1171 5.143 5.1171s5.13-1.8813 5.13-5.1171c0-3.2357-2.424-5.1171-5.13-5.1171zm0 9.1608c-2.092.0139-3.778-1.6172-3.778-4.0451 0-2.4278 1.687-4.045 3.778-4.045s3.766 1.6172 3.766 4.045c0 2.4279-1.729 4.0576-3.766 4.0451z" fill="#fff" fill-rule="evenodd"/></g></g></svg>